<svg width="153" height="153" viewBox="0 0 153 153" fill="none" xmlns="http://www.w3.org/2000/svg">
<path d="M153 117.014H0V117.091H153V117.014Z" fill="#EBEBEB"/>
<path d="M137.669 121.938H127.535V122.014H137.669V121.938Z" fill="#EBEBEB"/>
<path d="M101.353 122.77H98.6942V122.847H101.353V122.77Z" fill="#EBEBEB"/>
<path d="M127.229 119.098H121.357V119.175H127.229V119.098Z" fill="#EBEBEB"/>
<path d="M29.2689 119.612H16.0527V119.689H29.2689V119.612Z" fill="#EBEBEB"/>
<path d="M33.9323 119.612H31.9954V119.689H33.9323V119.612Z" fill="#EBEBEB"/>
<path d="M68.8959 120.904H40.2299V120.98H68.8959V120.904Z" fill="#EBEBEB"/>
<path d="M72.522 103.367H13.4365C12.9736 103.366 12.53 103.182 12.2029 102.854C11.8759 102.526 11.6923 102.082 11.6923 101.62V18.562C11.6963 18.1018 11.8817 17.6618 12.2083 17.3375C12.5349 17.0132 12.9762 16.8309 13.4365 16.8301H72.522C72.9854 16.8301 73.4298 17.0142 73.7575 17.3418C74.0852 17.6695 74.2693 18.1139 74.2693 18.5773V101.62C74.2693 102.083 74.0852 102.527 73.7575 102.855C73.4298 103.183 72.9854 103.367 72.522 103.367ZM13.4365 16.8913C12.9939 16.8921 12.5697 17.0685 12.257 17.3817C11.9444 17.695 11.7688 18.1195 11.7688 18.562V101.62C11.7688 102.062 11.9444 102.487 12.257 102.8C12.5697 103.113 12.9939 103.29 13.4365 103.29H72.522C72.9649 103.29 73.3894 103.113 73.7025 102.8C74.0157 102.487 74.192 102.062 74.1928 101.62V18.562C74.192 18.1192 74.0157 17.6947 73.7025 17.3815C73.3894 17.0684 72.9649 16.8921 72.522 16.8913H13.4365Z" fill="#EBEBEB"/>
<path d="M138.713 103.367H79.6242C79.1611 103.366 78.7171 103.182 78.3896 102.854C78.0621 102.527 77.8778 102.083 77.877 101.62V18.562C77.8818 18.1015 78.0679 17.6615 78.395 17.3373C78.722 17.0131 79.1637 16.8309 79.6242 16.8301H138.713C139.173 16.8317 139.613 17.0144 139.939 17.3386C140.265 17.6628 140.45 18.1024 140.454 18.562V101.62C140.454 102.082 140.271 102.525 139.944 102.853C139.618 103.18 139.175 103.365 138.713 103.367ZM79.6242 16.8913C79.1813 16.8921 78.7569 17.0684 78.4437 17.3815C78.1305 17.6947 77.9543 18.1192 77.9535 18.562V101.62C77.9543 102.062 78.1305 102.487 78.4437 102.8C78.7569 103.113 79.1813 103.29 79.6242 103.29H138.713C139.156 103.29 139.58 103.113 139.893 102.8C140.206 102.487 140.383 102.062 140.384 101.62V18.562C140.383 18.1192 140.206 17.6947 139.893 17.3815C139.58 17.0684 139.156 16.8921 138.713 16.8913H79.6242Z" fill="#EBEBEB"/>
<path d="M121.883 29.6147H83.0024V117.014H121.883V29.6147Z" fill="#F0F0F0"/>
<path d="M121.883 29.6147H83.8226V117.014H121.883V29.6147Z" fill="#F5F5F5"/>
<path d="M119.56 115.032V31.5977L86.139 31.5977V115.032H119.56Z" fill="#F0F0F0"/>
<path d="M89.4254 47.1241C89.4242 45.9271 89.6588 44.7416 90.1159 43.6354C90.5729 42.5291 91.2434 41.5237 92.0891 40.6767C92.9347 39.8296 93.939 39.1574 95.0445 38.6985C96.15 38.2396 97.335 38.003 98.532 38.0022H107.161C108.359 38.001 109.546 38.2361 110.653 38.6942C111.76 39.1522 112.766 39.8241 113.613 40.6714C114.46 41.5187 115.132 42.5248 115.589 43.6321C116.047 44.7393 116.282 45.926 116.28 47.1241H89.4254Z" fill="#FAFAFA"/>
<path d="M116.28 109.845V89.912H89.4285V109.845H116.28Z" fill="#F5F5F5"/>
<path d="M89.4255 87.3417H101.271V52.7361H89.4255V87.3417Z" fill="#F5F5F5"/>
<path d="M104.432 87.3417H116.277V52.7361H104.432V87.3417Z" fill="#F5F5F5"/>
<path d="M111.996 69.8813H116.846C117.046 69.8813 117.237 69.8019 117.378 69.6608C117.52 69.5196 117.599 69.3281 117.599 69.1285C117.598 68.9291 117.519 68.7381 117.378 68.5971C117.237 68.4561 117.046 68.3765 116.846 68.3757H111.996C111.796 68.3757 111.605 68.455 111.464 68.5962C111.323 68.7374 111.243 68.9289 111.243 69.1285C111.243 69.3281 111.323 69.5196 111.464 69.6608C111.605 69.8019 111.796 69.8813 111.996 69.8813Z" fill="#E0E0E0"/>
<path d="M119.56 115.032V31.5977H118.957V115.032H119.56Z" fill="#F0F0F0"/>
<path d="M21.5393 83.0576H58.5316V30.6979C58.5316 26.5271 21.5393 26.5271 21.5393 30.6979V83.0576Z" fill="#E0E0E0"/>
<path d="M22.39 83.0576H59.3793V30.6979C59.3793 26.5271 22.387 26.5271 22.39 30.6979V83.0576Z" fill="#EBEBEB"/>
<path d="M57.5434 80.4321V31.7322C57.5441 31.5689 57.4941 31.4094 57.4004 31.2757C57.3067 31.142 57.1738 31.0406 57.0201 30.9856C54.9668 30.2481 49.3701 29.4066 40.8847 29.4066C32.3993 29.4066 26.8087 30.2481 24.7493 30.9856C24.5956 31.0406 24.4627 31.142 24.369 31.2757C24.2753 31.4094 24.2254 31.5689 24.2261 31.7322V80.4321C24.2261 80.6415 24.3093 80.8423 24.4573 80.9904C24.6054 81.1384 24.8062 81.2216 25.0156 81.2216H56.7539C56.9633 81.2216 57.1641 81.1384 57.3121 80.9904C57.4602 80.8423 57.5434 80.6415 57.5434 80.4321Z" fill="#FAFAFA"/>
<path d="M49.725 29.7585L55.4931 81.2216H47.0689L41.2549 29.4066C44.5352 29.4158 47.3688 29.5535 49.725 29.7585Z" fill="white"/>
<path d="M38.8315 29.425L44.6455 81.2217H39.9851L34.1956 29.5995C35.6062 29.5138 37.1546 29.4526 38.8315 29.425Z" fill="white"/>
<path d="M35.3767 81.904V28.6172H33.761V81.904H35.3767Z" fill="#EBEBEB"/>
<path d="M48.3878 81.904V28.6172H46.7721V81.904H48.3878Z" fill="#EBEBEB"/>
<path d="M46.7721 81.901V28.6141H46.4814V81.901H46.7721Z" fill="#E0E0E0"/>
<path d="M33.761 81.901V28.6141H33.4703V81.901H33.761Z" fill="#E0E0E0"/>
<path d="M23.6324 41.9679L58.5164 41.9679V40.3522L23.6324 40.3522V41.9679Z" fill="#EBEBEB"/>
<path d="M23.3263 84.3521H61.0653V82.5681H23.3263V84.3521Z" fill="#F5F5F5"/>
<path d="M23.3263 82.5649H21.5393V84.3489H23.3263V82.5649Z" fill="#E0E0E0"/>
<path d="M127.608 23.0358H136.834V20.4286H127.608V23.0358Z" fill="#F0F0F0"/>
<path d="M122.997 25.6428H132.223V23.0357H122.997V25.6428Z" fill="#E6E6E6"/>
<path d="M62.727 61.3928H71.9529V58.7857H62.727V61.3928Z" fill="#F5F5F5"/>
<path d="M49.0396 94.2113H58.2655V91.6042H49.0396V94.2113Z" fill="#F5F5F5"/>
<path d="M136.834 94.5204H127.608V97.1275H136.834V94.5204Z" fill="#E6E6E6"/>
<path d="M58.1125 14.8748L67.3384 14.8748V12.2676L58.1125 12.2676V14.8748Z" fill="#F0F0F0"/>
<path d="M24.223 110.047H33.4489V107.44H24.223V110.047Z" fill="#F5F5F5"/>
<path d="M16.9279 91.1177H26.1538V88.5106H16.9279V91.1177Z" fill="#F5F5F5"/>
<path d="M28.8405 112.654H38.0664V110.047H28.8405V112.654Z" fill="#F0F0F0"/>
<path d="M31.6159 20.8049H22.39V23.4121H31.6159V20.8049Z" fill="#F0F0F0"/>
<path d="M76.5 130.833C109.267 130.833 135.83 129.283 135.83 127.369C135.83 125.456 109.267 123.906 76.5 123.906C43.7328 123.906 17.1697 125.456 17.1697 127.369C17.1697 129.283 43.7328 130.833 76.5 130.833Z" fill="#F5F5F5"/>
<path d="M62.219 127.366H65.7104V77.0569H62.219L62.219 127.366Z" fill="#25AE4B"/>
<path opacity="0.2" d="M62.222 77.0599H65.7135V85.5208L62.222 84.6212V77.0599Z" fill="black"/>
<path d="M82.6353 83.3239H51.4906V77.4915C51.4906 75.3717 52.3327 73.3387 53.8316 71.8398C55.3305 70.3409 57.3635 69.4988 59.4833 69.4988H74.6425C76.7623 69.4988 78.7953 70.3409 80.2942 71.8398C81.7932 73.3387 82.6353 75.3717 82.6353 77.4915V83.3239Z" fill="#25AE4B"/>
<path opacity="0.1" d="M51.4905 81.5948H66.6498V77.7423H51.4905V81.5948Z" fill="white"/>
<path opacity="0.2" d="M66.6498 83.3237V77.4914C66.6498 75.3716 67.4919 73.3386 68.9908 71.8397C70.4897 70.3407 72.5227 69.4987 74.6425 69.4987C76.7623 69.4987 78.7953 70.3407 80.2942 71.8397C81.7931 73.3386 82.6352 75.3716 82.6352 77.4914V83.3237" fill="black"/>
<path d="M66.6498 84.3489H88.5227V83.3238H66.6498V84.3489Z" fill="#25AE4B"/>
<path opacity="0.2" d="M72.5373 84.3489H88.5227V83.3238H72.5373V84.3489Z" fill="black"/>
<path d="M63.9693 79.1377H64.5354V65.6339H63.9693V79.1377Z" fill="#E0E0E0"/>
<path d="M60.744 68.2564H64.7037V66.3164C64.7037 66.2482 64.6766 66.1828 64.6284 66.1346C64.5802 66.0864 64.5148 66.0593 64.4466 66.0593H60.744L61.3927 67.1579L60.744 68.2564Z" fill="#25AE4B"/>
<path d="M100.545 27.029C100.511 27.0284 100.478 27.0164 100.451 26.9947C100.425 26.9731 100.406 26.9431 100.399 26.9096C100.394 26.8901 100.393 26.8698 100.396 26.8499C100.399 26.83 100.406 26.8109 100.416 26.7938C100.427 26.7767 100.441 26.7618 100.457 26.7502C100.474 26.7385 100.492 26.7303 100.512 26.726C100.851 26.6485 101.185 26.5462 101.509 26.42C101.528 26.4126 101.548 26.4089 101.568 26.4092C101.588 26.4095 101.608 26.4137 101.627 26.4217C101.645 26.4296 101.662 26.4411 101.676 26.4556C101.69 26.47 101.701 26.487 101.708 26.5057C101.716 26.5244 101.719 26.5444 101.719 26.5645C101.719 26.5846 101.715 26.6044 101.707 26.6229C101.699 26.6414 101.687 26.6581 101.673 26.6721C101.658 26.6861 101.641 26.6972 101.623 26.7046C101.285 26.8398 100.937 26.9493 100.582 27.032L100.545 27.029Z" fill="#25AE4B"/>
<path d="M89.0459 79.8905C89.0066 79.8898 88.969 79.8743 88.9407 79.847C88.9123 79.8198 88.8953 79.7829 88.8929 79.7436C88.8921 79.7235 88.8953 79.7035 88.9022 79.6846C88.9092 79.6657 88.9197 79.6484 88.9334 79.6336C88.947 79.6188 88.9635 79.6069 88.9817 79.5985C89 79.59 89.0197 79.5853 89.0398 79.5845C89.7467 79.5478 90.4688 79.4835 91.1818 79.3887C91.2218 79.3843 91.262 79.3955 91.294 79.42C91.3259 79.4445 91.3471 79.4804 91.3532 79.5202C91.3562 79.5402 91.3551 79.5605 91.3501 79.5801C91.3451 79.5996 91.3361 79.6179 91.3238 79.6339C91.3116 79.6499 91.2962 79.6633 91.2786 79.6732C91.261 79.6831 91.2416 79.6894 91.2216 79.6916C90.4994 79.7895 89.7681 79.8538 89.0521 79.8874L89.0459 79.8905ZM93.3299 79.3244C93.2894 79.3289 93.2487 79.317 93.2168 79.2915C93.185 79.266 93.1646 79.2288 93.1601 79.1882C93.1557 79.1477 93.1675 79.107 93.193 79.0751C93.2186 79.0433 93.2557 79.0229 93.2963 79.0184C94.0154 78.8623 94.7161 78.6787 95.3771 78.4707C95.3967 78.4626 95.4177 78.4586 95.439 78.4591C95.4602 78.4595 95.481 78.4644 95.5003 78.4733C95.5195 78.4823 95.5366 78.4952 95.5506 78.5111C95.5646 78.5271 95.5751 78.5457 95.5815 78.566C95.5879 78.5862 95.59 78.6075 95.5877 78.6286C95.5854 78.6497 95.5788 78.6701 95.5682 78.6884C95.5576 78.7068 95.5433 78.7228 95.5262 78.7353C95.5091 78.7479 95.4896 78.7568 95.4689 78.7614C94.7987 78.9725 94.0919 79.1592 93.3605 79.3183L93.3299 79.3244ZM97.4457 78.0025C97.4166 78.0026 97.3881 77.9943 97.3636 77.9786C97.3392 77.9628 97.3198 77.9403 97.3079 77.9137C97.2992 77.8955 97.2941 77.8757 97.2931 77.8554C97.292 77.8352 97.295 77.815 97.3018 77.7959C97.3086 77.7768 97.3192 77.7593 97.3329 77.7443C97.3465 77.7294 97.363 77.7173 97.3814 77.7087C97.9001 77.477 98.4004 77.2059 98.8777 76.8978L99.2419 76.653C99.2756 76.6309 99.3167 76.623 99.3563 76.631C99.3958 76.639 99.4306 76.6623 99.453 76.6959C99.4645 76.7122 99.4726 76.7308 99.4769 76.7503C99.4811 76.7699 99.4814 76.7901 99.4777 76.8098C99.474 76.8295 99.4663 76.8482 99.4553 76.8649C99.4442 76.8816 99.4299 76.8959 99.4132 76.907L99.046 77.1518C98.5581 77.469 98.0466 77.7482 97.516 77.9872C97.4968 77.9962 97.476 78.0014 97.4548 78.0025H97.4457ZM101.047 75.6187C101.025 75.6185 101.004 75.6138 100.984 75.6049C100.964 75.5959 100.946 75.5829 100.931 75.5667C100.905 75.5357 100.892 75.4956 100.894 75.455C100.897 75.4144 100.916 75.3765 100.946 75.3495C101.488 74.8817 101.991 74.37 102.449 73.8195C102.475 73.7887 102.513 73.7695 102.554 73.766C102.594 73.7626 102.635 73.7752 102.666 73.8011C102.682 73.8138 102.694 73.8295 102.704 73.8472C102.713 73.8649 102.719 73.8844 102.72 73.9043C102.722 73.9243 102.72 73.9444 102.714 73.9635C102.707 73.9825 102.697 74.0002 102.684 74.0153C102.217 74.5745 101.705 75.0954 101.154 75.5728C101.129 75.5998 101.094 75.6162 101.056 75.6187H101.047ZM103.768 72.2833C103.743 72.2835 103.719 72.2772 103.697 72.265C103.661 72.2466 103.634 72.2148 103.621 72.1764C103.609 72.1379 103.612 72.0961 103.63 72.06C103.73 71.8682 103.822 71.6724 103.905 71.4724C104.094 71.0158 104.248 70.5452 104.364 70.0648C104.369 70.0448 104.378 70.0258 104.39 70.0091C104.402 69.9924 104.417 69.9782 104.435 69.9674C104.453 69.9566 104.472 69.9494 104.493 69.9462C104.513 69.9429 104.534 69.9437 104.554 69.9486C104.574 69.9534 104.593 69.9621 104.61 69.9743C104.627 69.9864 104.641 70.0017 104.651 70.0193C104.662 70.037 104.669 70.0565 104.673 70.0769C104.676 70.0973 104.675 70.1182 104.67 70.1383C104.551 70.6346 104.392 71.1206 104.196 71.5918C104.11 71.7968 104.015 71.9988 103.911 72.2038C103.898 72.2282 103.879 72.2485 103.855 72.2625C103.832 72.2765 103.804 72.2838 103.777 72.2833H103.768ZM104.829 68.1156C104.809 68.1145 104.789 68.1092 104.771 68.1003C104.752 68.0913 104.736 68.0787 104.723 68.0633C104.709 68.0479 104.699 68.03 104.693 68.0106C104.686 67.9912 104.684 67.9707 104.686 67.9504C104.713 67.5342 104.728 67.0936 104.728 66.607C104.728 66.3378 104.728 66.0715 104.728 65.8023C104.728 65.7819 104.731 65.7616 104.738 65.7425C104.745 65.7235 104.756 65.706 104.77 65.6912C104.784 65.6764 104.801 65.6645 104.819 65.6562C104.838 65.648 104.858 65.6435 104.878 65.6431C104.899 65.6423 104.919 65.6456 104.938 65.6527C104.957 65.6599 104.974 65.6708 104.988 65.6848C105.003 65.6988 105.015 65.7157 105.022 65.7343C105.03 65.7529 105.034 65.7729 105.034 65.7931C105.034 66.0654 105.034 66.3347 105.034 66.607C105.034 67.1028 105.019 67.5495 104.992 67.9718C104.989 68.0108 104.972 68.0474 104.944 68.0741C104.915 68.1008 104.878 68.1157 104.839 68.1156H104.829ZM104.771 63.7857C104.732 63.7858 104.695 63.7709 104.666 63.7442C104.638 63.7175 104.621 63.6809 104.618 63.6419C104.591 63.0299 104.563 62.3506 104.563 61.6835V61.4662C104.562 61.4459 104.565 61.4255 104.572 61.4065C104.579 61.3875 104.591 61.3702 104.605 61.356C104.62 61.3417 104.637 61.3308 104.656 61.3239C104.675 61.3171 104.696 61.3145 104.716 61.3163C104.757 61.3163 104.796 61.3324 104.824 61.3611C104.853 61.3898 104.869 61.4287 104.869 61.4693V61.6835C104.869 62.3445 104.897 63.0085 104.924 63.6266C104.925 63.6467 104.922 63.6668 104.915 63.6856C104.908 63.7045 104.897 63.7218 104.884 63.7366C104.87 63.7514 104.854 63.7633 104.836 63.7718C104.817 63.7802 104.798 63.7849 104.777 63.7857H104.771ZM117.853 61.9008C117.574 61.9008 117.302 61.9008 117.042 61.8824C117.022 61.8816 117.002 61.8769 116.984 61.8684C116.966 61.86 116.949 61.8481 116.935 61.8333C116.922 61.8185 116.911 61.8012 116.904 61.7823C116.897 61.7634 116.894 61.7434 116.895 61.7233C116.896 61.7032 116.901 61.6834 116.909 61.6652C116.917 61.6469 116.929 61.6305 116.944 61.6169C116.959 61.6032 116.976 61.5926 116.995 61.5857C117.014 61.5787 117.034 61.5756 117.054 61.5764C117.311 61.5764 117.58 61.5948 117.853 61.5948C118.301 61.597 118.75 61.5746 119.196 61.5274C119.237 61.523 119.277 61.5348 119.309 61.5604C119.341 61.5859 119.361 61.623 119.366 61.6636C119.37 61.7042 119.359 61.7449 119.333 61.7767C119.308 61.8086 119.27 61.829 119.23 61.8334C118.775 61.8802 118.319 61.9026 117.862 61.9008H117.853ZM114.888 61.7447C114.172 61.6896 113.443 61.6254 112.727 61.5519C112.707 61.55 112.688 61.5441 112.67 61.5346C112.652 61.5251 112.636 61.5121 112.623 61.4965C112.611 61.4808 112.601 61.4628 112.595 61.4434C112.589 61.4241 112.587 61.4037 112.59 61.3836C112.591 61.3635 112.597 61.3439 112.607 61.3261C112.616 61.3083 112.629 61.2925 112.645 61.2797C112.661 61.2669 112.679 61.2573 112.698 61.2515C112.717 61.2457 112.738 61.2438 112.758 61.2459C113.471 61.3194 114.196 61.3867 114.9 61.4418C114.94 61.4418 114.979 61.4579 115.008 61.4866C115.037 61.5153 115.053 61.5542 115.053 61.5948C115.053 61.6353 115.037 61.6743 115.008 61.703C114.979 61.7316 114.94 61.7478 114.9 61.7478L114.888 61.7447ZM121.314 61.3071C121.284 61.3068 121.256 61.2983 121.231 61.2826C121.206 61.267 121.186 61.2447 121.173 61.2184C121.156 61.1814 121.155 61.1395 121.169 61.1016C121.184 61.0637 121.213 61.0331 121.249 61.0164C121.891 60.7445 122.434 60.2834 122.807 59.6945C122.816 59.6756 122.83 59.6588 122.846 59.6453C122.862 59.6318 122.881 59.6218 122.902 59.616C122.922 59.6101 122.943 59.6086 122.964 59.6115C122.985 59.6143 123.005 59.6215 123.024 59.6326C123.042 59.6436 123.057 59.6583 123.069 59.6757C123.081 59.6931 123.09 59.7128 123.094 59.7335C123.098 59.7543 123.098 59.7757 123.093 59.7964C123.088 59.8171 123.08 59.8366 123.067 59.8536C122.664 60.4951 122.075 60.9981 121.378 61.2949C121.358 61.3034 121.336 61.3075 121.314 61.3071ZM110.588 61.3071H110.57C109.857 61.2153 109.132 61.1113 108.428 61.0011C108.408 60.9981 108.389 60.9912 108.372 60.9809C108.354 60.9705 108.339 60.9568 108.328 60.9406C108.316 60.9244 108.307 60.906 108.302 60.8864C108.297 60.8669 108.296 60.8466 108.299 60.8267C108.306 60.7869 108.328 60.7512 108.361 60.7272C108.393 60.7033 108.434 60.6929 108.474 60.6982C109.184 60.8083 109.903 60.9124 110.616 61.0042C110.656 61.0066 110.694 61.0251 110.721 61.0555C110.748 61.0859 110.762 61.1258 110.76 61.1664C110.757 61.2069 110.739 61.2449 110.708 61.2719C110.678 61.2988 110.638 61.3126 110.598 61.3102L110.588 61.3071ZM106.304 60.6431H106.277C105.57 60.5146 104.854 60.3738 104.15 60.2269C104.11 60.2188 104.074 60.1949 104.051 60.1605C104.028 60.1261 104.02 60.0839 104.028 60.0433C104.036 60.0028 104.06 59.9671 104.094 59.9441C104.129 59.9212 104.171 59.9128 104.211 59.9209C104.915 60.0678 105.628 60.2086 106.332 60.3371C106.352 60.3404 106.371 60.3477 106.388 60.3584C106.405 60.3692 106.42 60.3832 106.432 60.3997C106.443 60.4162 106.452 60.4348 106.456 60.4546C106.46 60.4743 106.461 60.4947 106.457 60.5146C106.45 60.5489 106.431 60.5796 106.404 60.6018C106.376 60.624 106.343 60.6364 106.307 60.637L106.304 60.6431ZM102.066 59.7557H102.03C101.332 59.5905 100.622 59.413 99.9273 59.2294C99.9072 59.2244 99.8883 59.2154 99.8717 59.2031C99.855 59.1908 99.841 59.1753 99.8303 59.1575C99.8197 59.1398 99.8126 59.1201 99.8096 59.0996C99.8065 59.0791 99.8075 59.0582 99.8126 59.0381C99.8176 59.018 99.8265 58.9991 99.8388 58.9825C99.8512 58.9659 99.8667 58.9518 99.8844 58.9412C99.9022 58.9305 99.9219 58.9234 99.9423 58.9204C99.9628 58.9173 99.9837 58.9184 100.004 58.9234C100.698 59.107 101.402 59.2845 102.1 59.4466C102.14 59.4568 102.174 59.4819 102.195 59.5167C102.217 59.5514 102.225 59.5932 102.216 59.6333C102.208 59.6662 102.189 59.6955 102.163 59.7166C102.136 59.7376 102.103 59.7492 102.069 59.7496L102.066 59.7557ZM104.875 59.4681H104.851C104.811 59.4613 104.775 59.4393 104.751 59.4068C104.727 59.3743 104.717 59.3337 104.722 59.2936C104.83 58.5661 105.011 57.8514 105.264 57.1608C105.278 57.1227 105.306 57.0916 105.343 57.0744C105.38 57.0572 105.422 57.0552 105.46 57.069C105.498 57.0828 105.529 57.1112 105.546 57.1479C105.563 57.1847 105.565 57.2267 105.552 57.2649C105.308 57.9347 105.133 58.6279 105.031 59.3334C105.026 59.3696 105.007 59.4025 104.979 59.4261C104.951 59.4497 104.915 59.4624 104.878 59.4619L104.875 59.4681ZM97.8771 58.651C97.863 58.6538 97.8484 58.6538 97.8343 58.651C97.1458 58.4521 96.445 58.2379 95.7596 58.0176C95.7403 58.0117 95.7223 58.002 95.7069 57.989C95.6914 57.9761 95.6787 57.9601 95.6696 57.9421C95.6604 57.9241 95.655 57.9044 95.6537 57.8843C95.6523 57.8641 95.655 57.8439 95.6617 57.8248C95.6743 57.7863 95.7017 57.7544 95.7378 57.736C95.7739 57.7176 95.8159 57.7144 95.8544 57.7269C96.5368 57.9442 97.2314 58.1584 97.9199 58.3573C97.9589 58.3686 97.9917 58.395 98.0113 58.4306C98.0308 58.4662 98.0353 58.508 98.024 58.547C98.0132 58.5763 97.9935 58.6014 97.9677 58.619C97.942 58.6365 97.9113 58.6456 97.8802 58.6449L97.8771 58.651ZM123.37 57.8646C123.334 57.8639 123.3 57.8511 123.273 57.8283C123.246 57.8055 123.227 57.774 123.22 57.7392C123.055 57.0646 122.675 56.462 122.137 56.0225C122.123 56.0085 122.111 55.9919 122.103 55.9735C122.096 55.9551 122.092 55.9354 122.092 55.9154C122.092 55.8955 122.096 55.8757 122.103 55.8573C122.111 55.8389 122.123 55.8223 122.137 55.8083C122.151 55.794 122.168 55.7826 122.187 55.7748C122.205 55.767 122.225 55.763 122.245 55.763C122.266 55.763 122.286 55.767 122.304 55.7748C122.323 55.7826 122.34 55.794 122.354 55.8083C122.942 56.2909 123.356 56.953 123.532 57.6933C123.536 57.713 123.536 57.7332 123.532 57.753C123.529 57.7727 123.521 57.7915 123.51 57.8083C123.499 57.825 123.485 57.8394 123.468 57.8507C123.451 57.8619 123.432 57.8698 123.413 57.8738L123.37 57.8646ZM93.7553 57.3291C93.7381 57.3323 93.7205 57.3323 93.7033 57.3291C93.0056 57.0813 92.3232 56.8242 91.6684 56.5672C91.6311 56.5516 91.6014 56.5221 91.5854 56.485C91.5694 56.4479 91.5685 56.4061 91.5827 56.3683C91.5901 56.3496 91.6011 56.3325 91.6152 56.3181C91.6292 56.3037 91.6459 56.2922 91.6644 56.2842C91.6828 56.2762 91.7027 56.272 91.7228 56.2717C91.7429 56.2715 91.7629 56.2751 91.7816 56.2826C92.4303 56.5396 93.1127 56.7936 93.8042 57.0415C93.8422 57.0547 93.8735 57.0823 93.8912 57.1184C93.909 57.1545 93.9118 57.1961 93.8991 57.2343C93.8867 57.2611 93.8668 57.2837 93.8418 57.2994C93.8169 57.3152 93.7879 57.3234 93.7583 57.323L93.7553 57.3291ZM89.7283 55.7287C89.7082 55.7332 89.6873 55.7332 89.6671 55.7287C88.9939 55.4227 88.333 55.1167 87.7057 54.7954C87.6862 54.7874 87.6687 54.7754 87.6541 54.7602C87.6396 54.745 87.6283 54.727 87.621 54.7072C87.6137 54.6875 87.6105 54.6665 87.6117 54.6455C87.6129 54.6245 87.6184 54.6039 87.6279 54.5852C87.6374 54.5664 87.6507 54.5498 87.6669 54.5364C87.6831 54.5229 87.7019 54.513 87.7221 54.5072C87.7423 54.5014 87.7635 54.4998 87.7844 54.5025C87.8053 54.5052 87.8253 54.5123 87.8434 54.5231C88.4554 54.8291 89.1224 55.1351 89.7926 55.4411C89.8332 55.4496 89.8687 55.4739 89.8914 55.5086C89.914 55.5434 89.922 55.5857 89.9135 55.6262C89.9049 55.6668 89.8806 55.7023 89.8459 55.725C89.8112 55.7477 89.7689 55.7556 89.7283 55.7471V55.7287ZM106.411 55.4625C106.379 55.4624 106.347 55.4529 106.32 55.435C106.287 55.4106 106.266 55.3744 106.26 55.3342C106.254 55.294 106.265 55.2532 106.289 55.2208C106.689 54.6716 107.181 54.1955 107.743 53.8132L107.902 53.7122C107.919 53.7016 107.938 53.6944 107.958 53.6911C107.977 53.6878 107.998 53.6884 108.017 53.693C108.037 53.6975 108.056 53.7059 108.072 53.7176C108.088 53.7293 108.102 53.7441 108.113 53.7612C108.123 53.7782 108.131 53.7973 108.134 53.8171C108.137 53.837 108.137 53.8573 108.132 53.8769C108.128 53.8965 108.119 53.915 108.107 53.9314C108.096 53.9477 108.081 53.9617 108.064 53.9723L107.914 54.0672C107.381 54.4298 106.914 54.881 106.534 55.4013C106.519 55.4186 106.501 55.4325 106.48 55.442C106.46 55.4516 106.437 55.4565 106.415 55.4564L106.411 55.4625ZM120.448 54.8505C120.422 54.8503 120.397 54.844 120.374 54.8322C120.117 54.6945 119.866 54.5659 119.628 54.4466C119.239 54.2569 118.838 54.0794 118.434 53.9203C118.414 53.9142 118.395 53.904 118.379 53.8903C118.363 53.8766 118.35 53.8598 118.341 53.8409C118.332 53.822 118.327 53.8013 118.326 53.7803C118.325 53.7593 118.328 53.7383 118.336 53.7187C118.344 53.699 118.355 53.6812 118.37 53.6662C118.385 53.6513 118.403 53.6395 118.422 53.6318C118.442 53.624 118.463 53.6203 118.484 53.621C118.505 53.6217 118.525 53.6267 118.544 53.6357C118.957 53.7948 119.367 53.9784 119.768 54.1743C120.007 54.2936 120.264 54.4221 120.524 54.5629C120.559 54.5829 120.585 54.6157 120.597 54.6546C120.608 54.6934 120.604 54.7351 120.585 54.771C120.572 54.7942 120.552 54.8133 120.528 54.8262C120.504 54.8391 120.478 54.8454 120.451 54.8444L120.448 54.8505ZM85.8697 53.7642C85.8426 53.7648 85.816 53.7573 85.7932 53.7428C85.1536 53.3725 84.5324 52.987 83.9572 52.5922C83.9275 52.5683 83.9078 52.5342 83.9019 52.4965C83.8961 52.4589 83.9045 52.4204 83.9256 52.3886C83.9467 52.3568 83.9788 52.334 84.0158 52.3247C84.0528 52.3154 84.0919 52.3202 84.1255 52.3383C84.7069 52.7269 85.3219 53.1124 85.9615 53.4796C85.9902 53.4967 86.0125 53.5226 86.0251 53.5536C86.0377 53.5845 86.0398 53.6187 86.0312 53.651C86.0225 53.6832 86.0035 53.7117 85.9771 53.7322C85.9507 53.7526 85.9184 53.7639 85.885 53.7642H85.8697ZM116.424 53.2838H116.387C115.691 53.1188 114.985 53.0022 114.273 52.935C114.233 52.9311 114.196 52.9116 114.17 52.8806C114.144 52.8497 114.131 52.8098 114.135 52.7697C114.14 52.7294 114.16 52.6924 114.191 52.6667C114.223 52.641 114.263 52.6286 114.303 52.632C115.025 52.7004 115.74 52.819 116.445 52.987C116.486 52.9914 116.523 53.0118 116.548 53.0437C116.574 53.0755 116.586 53.1162 116.581 53.1568C116.577 53.1974 116.556 53.2345 116.525 53.2601C116.493 53.2856 116.452 53.2974 116.412 53.293L116.424 53.2838ZM109.982 53.1859C109.948 53.1855 109.914 53.1736 109.887 53.1519C109.86 53.1303 109.841 53.1003 109.833 53.0665C109.823 53.0272 109.83 52.9858 109.851 52.9514C109.872 52.917 109.906 52.8924 109.946 52.8829C110.483 52.7559 111.029 52.6689 111.58 52.6228C111.757 52.6228 111.938 52.5953 112.115 52.5861C112.136 52.584 112.156 52.5861 112.175 52.5923C112.195 52.5986 112.213 52.6088 112.228 52.6223C112.243 52.6358 112.256 52.6524 112.264 52.6709C112.273 52.6895 112.277 52.7096 112.277 52.7299C112.279 52.77 112.265 52.8092 112.238 52.8389C112.211 52.8687 112.174 52.8867 112.134 52.8891C111.956 52.8891 111.782 52.9135 111.607 52.9288C111.072 52.9732 110.542 53.057 110.019 53.1798L109.982 53.1859ZM82.2803 51.3499C82.2461 51.3506 82.2127 51.3398 82.1854 51.3193C81.604 50.8633 81.0471 50.386 80.53 49.9056C80.5156 49.8913 80.5042 49.8744 80.4965 49.8558C80.4887 49.8371 80.4847 49.8171 80.4847 49.7969C80.4847 49.7767 80.4887 49.7567 80.4965 49.7381C80.5042 49.7194 80.5156 49.7025 80.53 49.6883C80.5591 49.6601 80.598 49.6443 80.6386 49.6443C80.6791 49.6443 80.7181 49.6601 80.7472 49.6883C81.2582 50.1657 81.809 50.6369 82.3843 51.0867C82.4159 51.112 82.4361 51.1487 82.4407 51.1888C82.4453 51.2289 82.4338 51.2692 82.4088 51.3009C82.3924 51.3169 82.3726 51.3287 82.3508 51.3357C82.329 51.3426 82.3059 51.3443 82.2833 51.3407L82.2803 51.3499ZM79.1224 48.397C79.1004 48.3968 79.0788 48.3921 79.0588 48.3831C79.0388 48.3742 79.0208 48.3612 79.0061 48.345C78.5253 47.7983 78.0767 47.2241 77.6627 46.6252C77.6398 46.5918 77.6308 46.5507 77.6377 46.5107C77.6445 46.4707 77.6667 46.435 77.6995 46.411C77.7335 46.3892 77.7746 46.3811 77.8144 46.3885C77.8542 46.3959 77.8897 46.4182 77.9137 46.4508C78.3267 47.0378 78.7743 47.5998 79.2539 48.1338C79.282 48.1624 79.2977 48.2009 79.2977 48.2409C79.2977 48.281 79.282 48.3194 79.2539 48.348C79.237 48.364 79.2166 48.3759 79.1943 48.3828C79.172 48.3897 79.1485 48.3914 79.1254 48.3878L79.1224 48.397ZM76.6744 44.8382C76.6461 44.838 76.6185 44.8299 76.5947 44.8148C76.5709 44.7996 76.5518 44.778 76.5397 44.7525C76.2042 44.1056 75.9149 43.4359 75.6737 42.7482C75.6609 42.7097 75.6637 42.6676 75.6814 42.631C75.6991 42.5945 75.7304 42.5663 75.7686 42.5524C75.8068 42.5397 75.8484 42.5425 75.8844 42.5603C75.9205 42.578 75.9482 42.6093 75.9614 42.6472C76.198 43.3224 76.4822 43.9799 76.8121 44.6148C76.8302 44.651 76.8333 44.6928 76.8207 44.7312C76.8081 44.7696 76.7808 44.8015 76.7447 44.8198C76.7225 44.8289 76.6982 44.832 76.6744 44.829V44.8382ZM75.2759 40.75C75.2396 40.7504 75.2044 40.7376 75.1768 40.714C75.1493 40.6903 75.1312 40.6575 75.126 40.6215C75.0954 40.4593 75.0709 40.2972 75.0464 40.1319C74.9717 39.5925 74.9338 39.0486 74.9332 38.504V38.4397C74.9332 38.3992 74.9493 38.3603 74.978 38.3316C75.0067 38.3029 75.0456 38.2867 75.0862 38.2867C75.1268 38.2867 75.1657 38.3029 75.1944 38.3316C75.2231 38.3603 75.2392 38.3992 75.2392 38.4397V38.5009C75.2388 39.0312 75.2756 39.5609 75.3494 40.086C75.3739 40.2482 75.3983 40.4073 75.4259 40.5664C75.433 40.6062 75.4242 40.6472 75.4013 40.6804C75.3783 40.7137 75.3432 40.7365 75.3035 40.7439L75.2759 40.75ZM75.2912 36.4416H75.2637C75.224 36.4341 75.1889 36.4113 75.1659 36.378C75.143 36.3448 75.1342 36.3038 75.1413 36.2641C75.2743 35.5453 75.4678 34.839 75.7196 34.1527C75.7347 34.1148 75.7638 34.0842 75.8008 34.0671C75.8378 34.05 75.8799 34.0478 75.9185 34.0609C75.9561 34.0753 75.9865 34.1039 76.0031 34.1406C76.0197 34.1772 76.0212 34.219 76.0073 34.2567C75.7599 34.9267 75.5705 35.6168 75.4412 36.3192C75.4344 36.3568 75.4136 36.3904 75.3829 36.4132C75.3521 36.4359 75.3139 36.4461 75.2759 36.4416H75.2912ZM76.7845 32.3993C76.7577 32.3979 76.7316 32.3906 76.708 32.3779C76.6731 32.3569 76.6477 32.323 76.6375 32.2835C76.6272 32.2441 76.6327 32.2022 76.6529 32.1667C77.0209 31.5346 77.446 30.9374 77.9228 30.3828C77.9506 30.3578 77.9865 30.3438 78.0238 30.3434C78.0611 30.343 78.0973 30.3563 78.1255 30.3808C78.1537 30.4052 78.172 30.4391 78.177 30.4761C78.1819 30.5131 78.1732 30.5507 78.1523 30.5817C77.6939 31.1249 77.2843 31.7075 76.9283 32.3228C76.9134 32.3493 76.8908 32.3708 76.8635 32.3844C76.8363 32.3981 76.8056 32.4032 76.7753 32.3993H76.7845ZM79.6028 29.1404C79.5712 29.1402 79.5404 29.1303 79.5147 29.1119C79.489 29.0935 79.4696 29.0676 79.4592 29.0377C79.4488 29.0079 79.4479 28.9755 79.4566 28.9452C79.4653 28.9148 79.4833 28.8878 79.5079 28.8681C80.0862 28.4191 80.7061 28.0267 81.3592 27.6961C81.3957 27.6778 81.438 27.6748 81.4768 27.6877C81.5155 27.7006 81.5475 27.7284 81.5658 27.7649C81.584 27.8015 81.587 27.8437 81.5741 27.8825C81.5612 27.9212 81.5334 27.9532 81.4969 27.9715C80.8617 28.2934 80.2582 28.6745 79.6946 29.1098C79.6657 29.1319 79.6299 29.1428 79.5936 29.1404H79.6028ZM98.3973 27.234C97.6686 27.218 96.9418 27.1536 96.2216 27.0412C96.1811 27.0356 96.1444 27.014 96.1197 26.9813C96.0951 26.9486 96.0844 26.9074 96.0901 26.8668C96.0957 26.8262 96.1173 26.7896 96.15 26.7649C96.1827 26.7402 96.2239 26.7296 96.2645 26.7352C96.9734 26.8467 97.689 26.9101 98.4065 26.925C98.4471 26.925 98.486 26.9411 98.5147 26.9698C98.5434 26.9985 98.5595 27.0374 98.5595 27.078C98.5595 27.1185 98.5434 27.1575 98.5147 27.1862C98.486 27.2148 98.4471 27.231 98.4065 27.231L98.3973 27.234ZM83.4217 27.1545C83.4016 27.1577 83.381 27.1569 83.3613 27.1522C83.3415 27.1475 83.3228 27.1389 83.3063 27.127C83.2898 27.115 83.2759 27.1 83.2652 27.0826C83.2545 27.0653 83.2474 27.046 83.2442 27.0259C83.241 27.0059 83.2417 26.9853 83.2465 26.9655C83.2512 26.9457 83.2598 26.9271 83.2717 26.9106C83.2836 26.8941 83.2987 26.8801 83.316 26.8695C83.3334 26.8588 83.3526 26.8517 83.3727 26.8485C84.0651 26.6237 84.7701 26.4398 85.4841 26.2977C85.504 26.2937 85.5245 26.2937 85.5444 26.2977C85.5643 26.3017 85.5832 26.3097 85.6 26.321C85.6168 26.3324 85.6312 26.3471 85.6423 26.3641C85.6534 26.3811 85.661 26.4001 85.6646 26.4201C85.6691 26.4396 85.6695 26.4598 85.6658 26.4795C85.6621 26.4992 85.6545 26.518 85.6433 26.5346C85.6321 26.5512 85.6177 26.5654 85.6008 26.5762C85.584 26.587 85.5651 26.5943 85.5453 26.5975C84.8429 26.7381 84.1492 26.9189 83.4676 27.1392L83.4217 27.1545ZM94.1072 26.674H94.0796C93.4217 26.5516 92.6782 26.4139 91.9376 26.3099C91.8981 26.3038 91.8624 26.2825 91.8384 26.2505C91.8144 26.2184 91.8039 26.1782 91.8091 26.1385C91.8114 26.1185 91.8176 26.0991 91.8276 26.0815C91.8375 26.064 91.8508 26.0486 91.8668 26.0363C91.8828 26.024 91.9011 26.0151 91.9207 26.01C91.9402 26.005 91.9605 26.004 91.9805 26.007C92.7149 26.111 93.4615 26.2518 94.1225 26.3742C94.1622 26.3816 94.1973 26.4044 94.2203 26.4377C94.2432 26.4709 94.252 26.5119 94.2449 26.5516C94.2397 26.5857 94.2233 26.6171 94.1984 26.6409C94.1735 26.6647 94.1414 26.6796 94.1072 26.6832V26.674ZM87.6567 26.2793C87.6161 26.2817 87.5762 26.268 87.5458 26.241C87.5154 26.214 87.497 26.1761 87.4945 26.1355C87.4921 26.0949 87.5059 26.055 87.5328 26.0246C87.5598 25.9942 87.5978 25.9757 87.6383 25.9733C88.027 25.9305 88.4431 25.8907 88.8623 25.857C89.1316 25.8356 89.4162 25.8234 89.7069 25.8234H89.8079C89.828 25.8238 89.8478 25.8281 89.8662 25.8362C89.8846 25.8442 89.9013 25.8558 89.9152 25.8703C89.9291 25.8848 89.94 25.9019 89.9474 25.9206C89.9547 25.9394 89.9582 25.9593 89.9578 25.9794C89.9556 26.019 89.9386 26.0563 89.9103 26.084C89.882 26.1117 89.8444 26.1279 89.8048 26.1294H89.7069C89.4254 26.1294 89.15 26.1294 88.8838 26.16C88.4615 26.1936 88.0514 26.2334 87.6598 26.2793H87.6567Z" fill="#25AE4B"/>
<path d="M86.8488 79.8966C86.4847 79.8813 86.1236 79.8538 85.7748 79.8201C85.7548 79.8186 85.7353 79.8131 85.7175 79.8039C85.6996 79.7947 85.6838 79.782 85.671 79.7666C85.6581 79.7512 85.6485 79.7334 85.6427 79.7142C85.6369 79.695 85.635 79.6748 85.6371 79.6549C85.6382 79.6347 85.6434 79.615 85.6525 79.597C85.6615 79.5789 85.6742 79.563 85.6897 79.55C85.7052 79.5371 85.7232 79.5275 85.7426 79.5219C85.7619 79.5162 85.7823 79.5146 85.8023 79.5172C86.1481 79.5508 86.503 79.5753 86.8641 79.5906C86.9047 79.5906 86.9436 79.6067 86.9723 79.6354C87.001 79.6641 87.0171 79.703 87.0171 79.7436C87.0171 79.7842 87.001 79.8231 86.9723 79.8518C86.9436 79.8805 86.9047 79.8966 86.8641 79.8966H86.8488Z" fill="#25AE4B"/>
<g opacity="0.6">
<path d="M100.545 27.029C100.511 27.0284 100.478 27.0164 100.451 26.9947C100.425 26.9731 100.406 26.9431 100.399 26.9096C100.394 26.8901 100.393 26.8698 100.396 26.8499C100.399 26.83 100.406 26.8109 100.416 26.7938C100.427 26.7767 100.441 26.7618 100.457 26.7502C100.474 26.7385 100.492 26.7303 100.512 26.726C100.851 26.6485 101.185 26.5462 101.509 26.42C101.528 26.4126 101.548 26.4089 101.568 26.4092C101.588 26.4095 101.608 26.4137 101.627 26.4217C101.645 26.4296 101.662 26.4411 101.676 26.4556C101.69 26.47 101.701 26.487 101.708 26.5057C101.716 26.5244 101.719 26.5444 101.719 26.5645C101.719 26.5846 101.715 26.6044 101.707 26.6229C101.699 26.6414 101.687 26.6581 101.673 26.6721C101.658 26.6861 101.641 26.6972 101.623 26.7046C101.285 26.8398 100.937 26.9493 100.582 27.032L100.545 27.029Z" fill="white"/>
<path d="M89.0459 79.8905C89.0066 79.8898 88.969 79.8743 88.9407 79.847C88.9123 79.8198 88.8953 79.7829 88.8929 79.7436C88.8921 79.7235 88.8953 79.7035 88.9022 79.6846C88.9092 79.6657 88.9197 79.6484 88.9334 79.6336C88.947 79.6188 88.9635 79.6069 88.9817 79.5985C89 79.59 89.0197 79.5853 89.0398 79.5845C89.7467 79.5478 90.4688 79.4835 91.1818 79.3887C91.2218 79.3843 91.262 79.3955 91.294 79.42C91.3259 79.4445 91.3471 79.4804 91.3532 79.5202C91.3562 79.5402 91.3551 79.5605 91.3501 79.5801C91.3451 79.5996 91.3361 79.6179 91.3238 79.6339C91.3116 79.6499 91.2962 79.6633 91.2786 79.6732C91.261 79.6831 91.2416 79.6894 91.2216 79.6916C90.4994 79.7895 89.7681 79.8538 89.0521 79.8874L89.0459 79.8905ZM93.3299 79.3244C93.2894 79.3289 93.2487 79.317 93.2168 79.2915C93.185 79.266 93.1646 79.2288 93.1601 79.1882C93.1557 79.1477 93.1675 79.107 93.193 79.0751C93.2186 79.0433 93.2557 79.0229 93.2963 79.0184C94.0154 78.8623 94.7161 78.6787 95.3771 78.4707C95.3967 78.4626 95.4177 78.4586 95.439 78.4591C95.4602 78.4595 95.481 78.4644 95.5003 78.4733C95.5195 78.4823 95.5366 78.4952 95.5506 78.5111C95.5646 78.5271 95.5751 78.5457 95.5815 78.566C95.5879 78.5862 95.59 78.6075 95.5877 78.6286C95.5854 78.6497 95.5788 78.6701 95.5682 78.6884C95.5576 78.7068 95.5433 78.7228 95.5262 78.7353C95.5091 78.7479 95.4896 78.7568 95.4689 78.7614C94.7987 78.9725 94.0919 79.1592 93.3605 79.3183L93.3299 79.3244ZM97.4457 78.0025C97.4166 78.0026 97.3881 77.9943 97.3636 77.9786C97.3392 77.9628 97.3198 77.9403 97.3079 77.9137C97.2992 77.8955 97.2941 77.8757 97.2931 77.8554C97.292 77.8352 97.295 77.815 97.3018 77.7959C97.3086 77.7768 97.3192 77.7593 97.3329 77.7443C97.3465 77.7294 97.363 77.7173 97.3814 77.7087C97.9001 77.477 98.4004 77.2059 98.8777 76.8978L99.2419 76.653C99.2756 76.6309 99.3167 76.623 99.3563 76.631C99.3958 76.639 99.4306 76.6623 99.453 76.6959C99.4645 76.7122 99.4726 76.7308 99.4769 76.7503C99.4811 76.7699 99.4814 76.7901 99.4777 76.8098C99.474 76.8295 99.4663 76.8482 99.4553 76.8649C99.4442 76.8816 99.4299 76.8959 99.4132 76.907L99.046 77.1518C98.5581 77.469 98.0466 77.7482 97.516 77.9872C97.4968 77.9962 97.476 78.0014 97.4548 78.0025H97.4457ZM101.047 75.6187C101.025 75.6185 101.004 75.6138 100.984 75.6049C100.964 75.5959 100.946 75.5829 100.931 75.5667C100.905 75.5357 100.892 75.4956 100.894 75.455C100.897 75.4144 100.916 75.3765 100.946 75.3495C101.488 74.8817 101.991 74.37 102.449 73.8195C102.475 73.7887 102.513 73.7695 102.554 73.766C102.594 73.7626 102.635 73.7752 102.666 73.8011C102.682 73.8138 102.694 73.8295 102.704 73.8472C102.713 73.8649 102.719 73.8844 102.72 73.9043C102.722 73.9243 102.72 73.9444 102.714 73.9635C102.707 73.9825 102.697 74.0002 102.684 74.0153C102.217 74.5745 101.705 75.0954 101.154 75.5728C101.129 75.5998 101.094 75.6162 101.056 75.6187H101.047ZM103.768 72.2833C103.743 72.2835 103.719 72.2772 103.697 72.265C103.661 72.2466 103.634 72.2148 103.621 72.1764C103.609 72.1379 103.612 72.0961 103.63 72.06C103.73 71.8682 103.822 71.6724 103.905 71.4724C104.094 71.0158 104.248 70.5452 104.364 70.0648C104.369 70.0448 104.378 70.0258 104.39 70.0091C104.402 69.9924 104.417 69.9782 104.435 69.9674C104.453 69.9566 104.472 69.9494 104.493 69.9462C104.513 69.9429 104.534 69.9437 104.554 69.9486C104.574 69.9534 104.593 69.9621 104.61 69.9743C104.627 69.9864 104.641 70.0017 104.651 70.0193C104.662 70.037 104.669 70.0565 104.673 70.0769C104.676 70.0973 104.675 70.1182 104.67 70.1383C104.551 70.6346 104.392 71.1206 104.196 71.5918C104.11 71.7968 104.015 71.9988 103.911 72.2038C103.898 72.2282 103.879 72.2485 103.855 72.2625C103.832 72.2765 103.804 72.2838 103.777 72.2833H103.768ZM104.829 68.1156C104.809 68.1145 104.789 68.1092 104.771 68.1003C104.752 68.0913 104.736 68.0787 104.723 68.0633C104.709 68.0479 104.699 68.03 104.693 68.0106C104.686 67.9912 104.684 67.9707 104.686 67.9504C104.713 67.5342 104.728 67.0936 104.728 66.607C104.728 66.3378 104.728 66.0715 104.728 65.8023C104.728 65.7819 104.731 65.7616 104.738 65.7425C104.745 65.7235 104.756 65.706 104.77 65.6912C104.784 65.6764 104.801 65.6645 104.819 65.6562C104.838 65.648 104.858 65.6435 104.878 65.6431C104.899 65.6423 104.919 65.6456 104.938 65.6527C104.957 65.6599 104.974 65.6708 104.988 65.6848C105.003 65.6988 105.015 65.7157 105.022 65.7343C105.03 65.7529 105.034 65.7729 105.034 65.7931C105.034 66.0654 105.034 66.3347 105.034 66.607C105.034 67.1028 105.019 67.5495 104.992 67.9718C104.989 68.0108 104.972 68.0474 104.944 68.0741C104.915 68.1008 104.878 68.1157 104.839 68.1156H104.829ZM104.771 63.7857C104.732 63.7858 104.695 63.7709 104.666 63.7442C104.638 63.7175 104.621 63.6809 104.618 63.6419C104.591 63.0299 104.563 62.3506 104.563 61.6835V61.4662C104.562 61.4459 104.565 61.4255 104.572 61.4065C104.579 61.3875 104.591 61.3702 104.605 61.356C104.62 61.3417 104.637 61.3308 104.656 61.3239C104.675 61.3171 104.696 61.3145 104.716 61.3163C104.757 61.3163 104.796 61.3324 104.824 61.3611C104.853 61.3898 104.869 61.4287 104.869 61.4693V61.6835C104.869 62.3445 104.897 63.0085 104.924 63.6266C104.925 63.6467 104.922 63.6668 104.915 63.6856C104.908 63.7045 104.897 63.7218 104.884 63.7366C104.87 63.7514 104.854 63.7633 104.836 63.7718C104.817 63.7802 104.798 63.7849 104.777 63.7857H104.771ZM117.853 61.9008C117.574 61.9008 117.302 61.9008 117.042 61.8824C117.022 61.8816 117.002 61.8769 116.984 61.8684C116.966 61.86 116.949 61.8481 116.935 61.8333C116.922 61.8185 116.911 61.8012 116.904 61.7823C116.897 61.7634 116.894 61.7434 116.895 61.7233C116.896 61.7032 116.901 61.6834 116.909 61.6652C116.917 61.6469 116.929 61.6305 116.944 61.6169C116.959 61.6032 116.976 61.5926 116.995 61.5857C117.014 61.5787 117.034 61.5756 117.054 61.5764C117.311 61.5764 117.58 61.5948 117.853 61.5948C118.301 61.597 118.75 61.5746 119.196 61.5274C119.237 61.523 119.277 61.5348 119.309 61.5604C119.341 61.5859 119.361 61.623 119.366 61.6636C119.37 61.7042 119.359 61.7449 119.333 61.7767C119.308 61.8086 119.27 61.829 119.23 61.8334C118.775 61.8802 118.319 61.9026 117.862 61.9008H117.853ZM114.888 61.7447C114.172 61.6896 113.443 61.6254 112.727 61.5519C112.707 61.55 112.688 61.5441 112.67 61.5346C112.652 61.5251 112.636 61.5121 112.623 61.4965C112.611 61.4808 112.601 61.4628 112.595 61.4434C112.589 61.4241 112.587 61.4037 112.59 61.3836C112.591 61.3635 112.597 61.3439 112.607 61.3261C112.616 61.3083 112.629 61.2925 112.645 61.2797C112.661 61.2669 112.679 61.2573 112.698 61.2515C112.717 61.2457 112.738 61.2438 112.758 61.2459C113.471 61.3194 114.196 61.3867 114.9 61.4418C114.94 61.4418 114.979 61.4579 115.008 61.4866C115.037 61.5153 115.053 61.5542 115.053 61.5948C115.053 61.6353 115.037 61.6743 115.008 61.703C114.979 61.7316 114.94 61.7478 114.9 61.7478L114.888 61.7447ZM121.314 61.3071C121.284 61.3068 121.256 61.2983 121.231 61.2826C121.206 61.267 121.186 61.2447 121.173 61.2184C121.156 61.1814 121.155 61.1395 121.169 61.1016C121.184 61.0637 121.213 61.0331 121.249 61.0164C121.891 60.7445 122.434 60.2834 122.807 59.6945C122.816 59.6756 122.83 59.6588 122.846 59.6453C122.862 59.6318 122.881 59.6218 122.902 59.616C122.922 59.6101 122.943 59.6086 122.964 59.6115C122.985 59.6143 123.005 59.6215 123.024 59.6326C123.042 59.6436 123.057 59.6583 123.069 59.6757C123.081 59.6931 123.09 59.7128 123.094 59.7335C123.098 59.7543 123.098 59.7757 123.093 59.7964C123.088 59.8171 123.08 59.8366 123.067 59.8536C122.664 60.4951 122.075 60.9981 121.378 61.2949C121.358 61.3034 121.336 61.3075 121.314 61.3071ZM110.588 61.3071H110.57C109.857 61.2153 109.132 61.1113 108.428 61.0011C108.408 60.9981 108.389 60.9912 108.372 60.9809C108.354 60.9705 108.339 60.9568 108.328 60.9406C108.316 60.9244 108.307 60.906 108.302 60.8864C108.297 60.8669 108.296 60.8466 108.299 60.8267C108.306 60.7869 108.328 60.7512 108.361 60.7272C108.393 60.7033 108.434 60.6929 108.474 60.6982C109.184 60.8083 109.903 60.9124 110.616 61.0042C110.656 61.0066 110.694 61.0251 110.721 61.0555C110.748 61.0859 110.762 61.1258 110.76 61.1664C110.757 61.2069 110.739 61.2449 110.708 61.2719C110.678 61.2988 110.638 61.3126 110.598 61.3102L110.588 61.3071ZM106.304 60.6431H106.277C105.57 60.5146 104.854 60.3738 104.15 60.2269C104.11 60.2188 104.074 60.1949 104.051 60.1605C104.028 60.1261 104.02 60.0839 104.028 60.0433C104.036 60.0028 104.06 59.9671 104.094 59.9441C104.129 59.9212 104.171 59.9128 104.211 59.9209C104.915 60.0678 105.628 60.2086 106.332 60.3371C106.352 60.3404 106.371 60.3477 106.388 60.3584C106.405 60.3692 106.42 60.3832 106.432 60.3997C106.443 60.4162 106.452 60.4348 106.456 60.4546C106.46 60.4743 106.461 60.4947 106.457 60.5146C106.45 60.5489 106.431 60.5796 106.404 60.6018C106.376 60.624 106.343 60.6364 106.307 60.637L106.304 60.6431ZM102.066 59.7557H102.03C101.332 59.5905 100.622 59.413 99.9273 59.2294C99.9072 59.2244 99.8883 59.2154 99.8717 59.2031C99.855 59.1908 99.841 59.1753 99.8303 59.1575C99.8197 59.1398 99.8126 59.1201 99.8096 59.0996C99.8065 59.0791 99.8075 59.0582 99.8126 59.0381C99.8176 59.018 99.8265 58.9991 99.8388 58.9825C99.8512 58.9659 99.8667 58.9518 99.8844 58.9412C99.9022 58.9305 99.9219 58.9234 99.9423 58.9204C99.9628 58.9173 99.9837 58.9184 100.004 58.9234C100.698 59.107 101.402 59.2845 102.1 59.4466C102.14 59.4568 102.174 59.4819 102.195 59.5167C102.217 59.5514 102.225 59.5932 102.216 59.6333C102.208 59.6662 102.189 59.6955 102.163 59.7166C102.136 59.7376 102.103 59.7492 102.069 59.7496L102.066 59.7557ZM104.875 59.4681H104.851C104.811 59.4613 104.775 59.4393 104.751 59.4068C104.727 59.3743 104.717 59.3337 104.722 59.2936C104.83 58.5661 105.011 57.8514 105.264 57.1608C105.278 57.1227 105.306 57.0916 105.343 57.0744C105.38 57.0572 105.422 57.0552 105.46 57.069C105.498 57.0828 105.529 57.1112 105.546 57.1479C105.563 57.1847 105.565 57.2267 105.552 57.2649C105.308 57.9347 105.133 58.6279 105.031 59.3334C105.026 59.3696 105.007 59.4025 104.979 59.4261C104.951 59.4497 104.915 59.4624 104.878 59.4619L104.875 59.4681ZM97.8771 58.651C97.863 58.6538 97.8484 58.6538 97.8343 58.651C97.1458 58.4521 96.445 58.2379 95.7596 58.0176C95.7403 58.0117 95.7223 58.002 95.7069 57.989C95.6914 57.9761 95.6787 57.9601 95.6696 57.9421C95.6604 57.9241 95.655 57.9044 95.6537 57.8843C95.6523 57.8641 95.655 57.8439 95.6617 57.8248C95.6743 57.7863 95.7017 57.7544 95.7378 57.736C95.7739 57.7176 95.8159 57.7144 95.8544 57.7269C96.5368 57.9442 97.2314 58.1584 97.9199 58.3573C97.9589 58.3686 97.9917 58.395 98.0113 58.4306C98.0308 58.4662 98.0353 58.508 98.024 58.547C98.0132 58.5763 97.9935 58.6014 97.9677 58.619C97.942 58.6365 97.9113 58.6456 97.8802 58.6449L97.8771 58.651ZM123.37 57.8646C123.334 57.8639 123.3 57.8511 123.273 57.8283C123.246 57.8055 123.227 57.774 123.22 57.7392C123.055 57.0646 122.675 56.462 122.137 56.0225C122.123 56.0085 122.111 55.9919 122.103 55.9735C122.096 55.9551 122.092 55.9354 122.092 55.9154C122.092 55.8955 122.096 55.8757 122.103 55.8573C122.111 55.8389 122.123 55.8223 122.137 55.8083C122.151 55.794 122.168 55.7826 122.187 55.7748C122.205 55.767 122.225 55.763 122.245 55.763C122.266 55.763 122.286 55.767 122.304 55.7748C122.323 55.7826 122.34 55.794 122.354 55.8083C122.942 56.2909 123.356 56.953 123.532 57.6933C123.536 57.713 123.536 57.7332 123.532 57.753C123.529 57.7727 123.521 57.7915 123.51 57.8083C123.499 57.825 123.485 57.8394 123.468 57.8507C123.451 57.8619 123.432 57.8698 123.413 57.8738L123.37 57.8646ZM93.7553 57.3291C93.7381 57.3323 93.7205 57.3323 93.7033 57.3291C93.0056 57.0813 92.3232 56.8242 91.6684 56.5672C91.6311 56.5516 91.6014 56.5221 91.5854 56.485C91.5694 56.4479 91.5685 56.4061 91.5827 56.3683C91.5901 56.3496 91.6011 56.3325 91.6152 56.3181C91.6292 56.3037 91.6459 56.2922 91.6644 56.2842C91.6828 56.2762 91.7027 56.272 91.7228 56.2717C91.7429 56.2715 91.7629 56.2751 91.7816 56.2826C92.4303 56.5396 93.1127 56.7936 93.8042 57.0415C93.8422 57.0547 93.8735 57.0823 93.8912 57.1184C93.909 57.1545 93.9118 57.1961 93.8991 57.2343C93.8867 57.2611 93.8668 57.2837 93.8418 57.2994C93.8169 57.3152 93.7879 57.3234 93.7583 57.323L93.7553 57.3291ZM89.7283 55.7287C89.7082 55.7332 89.6873 55.7332 89.6671 55.7287C88.9939 55.4227 88.333 55.1167 87.7057 54.7954C87.6862 54.7874 87.6687 54.7754 87.6541 54.7602C87.6396 54.745 87.6283 54.727 87.621 54.7072C87.6137 54.6875 87.6105 54.6665 87.6117 54.6455C87.6129 54.6245 87.6184 54.6039 87.6279 54.5852C87.6374 54.5664 87.6507 54.5498 87.6669 54.5364C87.6831 54.5229 87.7019 54.513 87.7221 54.5072C87.7423 54.5014 87.7635 54.4998 87.7844 54.5025C87.8053 54.5052 87.8253 54.5123 87.8434 54.5231C88.4554 54.8291 89.1224 55.1351 89.7926 55.4411C89.8332 55.4496 89.8687 55.4739 89.8914 55.5086C89.914 55.5434 89.922 55.5857 89.9135 55.6262C89.9049 55.6668 89.8806 55.7023 89.8459 55.725C89.8112 55.7477 89.7689 55.7556 89.7283 55.7471V55.7287ZM106.411 55.4625C106.379 55.4624 106.347 55.4529 106.32 55.435C106.287 55.4106 106.266 55.3744 106.26 55.3342C106.254 55.294 106.265 55.2532 106.289 55.2208C106.689 54.6716 107.181 54.1955 107.743 53.8132L107.902 53.7122C107.919 53.7016 107.938 53.6944 107.958 53.6911C107.977 53.6878 107.998 53.6884 108.017 53.693C108.037 53.6975 108.056 53.7059 108.072 53.7176C108.088 53.7293 108.102 53.7441 108.113 53.7612C108.123 53.7782 108.131 53.7973 108.134 53.8171C108.137 53.837 108.137 53.8573 108.132 53.8769C108.128 53.8965 108.119 53.915 108.107 53.9314C108.096 53.9477 108.081 53.9617 108.064 53.9723L107.914 54.0672C107.381 54.4298 106.914 54.881 106.534 55.4013C106.519 55.4186 106.501 55.4325 106.48 55.442C106.46 55.4516 106.437 55.4565 106.415 55.4564L106.411 55.4625ZM120.448 54.8505C120.422 54.8503 120.397 54.844 120.374 54.8322C120.117 54.6945 119.866 54.5659 119.628 54.4466C119.239 54.2569 118.838 54.0794 118.434 53.9203C118.414 53.9142 118.395 53.904 118.379 53.8903C118.363 53.8766 118.35 53.8598 118.341 53.8409C118.332 53.822 118.327 53.8013 118.326 53.7803C118.325 53.7593 118.328 53.7383 118.336 53.7187C118.344 53.699 118.355 53.6812 118.37 53.6662C118.385 53.6513 118.403 53.6395 118.422 53.6318C118.442 53.624 118.463 53.6203 118.484 53.621C118.505 53.6217 118.525 53.6267 118.544 53.6357C118.957 53.7948 119.367 53.9784 119.768 54.1743C120.007 54.2936 120.264 54.4221 120.524 54.5629C120.559 54.5829 120.585 54.6157 120.597 54.6546C120.608 54.6934 120.604 54.7351 120.585 54.771C120.572 54.7942 120.552 54.8133 120.528 54.8262C120.504 54.8391 120.478 54.8454 120.451 54.8444L120.448 54.8505ZM85.8697 53.7642C85.8426 53.7648 85.816 53.7573 85.7932 53.7428C85.1536 53.3725 84.5324 52.987 83.9572 52.5922C83.9275 52.5683 83.9078 52.5342 83.9019 52.4965C83.8961 52.4589 83.9045 52.4204 83.9256 52.3886C83.9467 52.3568 83.9788 52.334 84.0158 52.3247C84.0528 52.3154 84.0919 52.3202 84.1255 52.3383C84.7069 52.7269 85.3219 53.1124 85.9615 53.4796C85.9902 53.4967 86.0125 53.5226 86.0251 53.5536C86.0377 53.5845 86.0398 53.6187 86.0312 53.651C86.0225 53.6832 86.0035 53.7117 85.9771 53.7322C85.9507 53.7526 85.9184 53.7639 85.885 53.7642H85.8697ZM116.424 53.2838H116.387C115.691 53.1188 114.985 53.0022 114.273 52.935C114.233 52.9311 114.196 52.9116 114.17 52.8806C114.144 52.8497 114.131 52.8098 114.135 52.7697C114.14 52.7294 114.16 52.6924 114.191 52.6667C114.223 52.641 114.263 52.6286 114.303 52.632C115.025 52.7004 115.74 52.819 116.445 52.987C116.486 52.9914 116.523 53.0118 116.548 53.0437C116.574 53.0755 116.586 53.1162 116.581 53.1568C116.577 53.1974 116.556 53.2345 116.525 53.2601C116.493 53.2856 116.452 53.2974 116.412 53.293L116.424 53.2838ZM109.982 53.1859C109.948 53.1855 109.914 53.1736 109.887 53.1519C109.86 53.1303 109.841 53.1003 109.833 53.0665C109.823 53.0272 109.83 52.9858 109.851 52.9514C109.872 52.917 109.906 52.8924 109.946 52.8829C110.483 52.7559 111.029 52.6689 111.58 52.6228C111.757 52.6228 111.938 52.5953 112.115 52.5861C112.136 52.584 112.156 52.5861 112.175 52.5923C112.195 52.5986 112.213 52.6088 112.228 52.6223C112.243 52.6358 112.256 52.6524 112.264 52.6709C112.273 52.6895 112.277 52.7096 112.277 52.7299C112.279 52.77 112.265 52.8092 112.238 52.8389C112.211 52.8687 112.174 52.8867 112.134 52.8891C111.956 52.8891 111.782 52.9135 111.607 52.9288C111.072 52.9732 110.542 53.057 110.019 53.1798L109.982 53.1859ZM82.2803 51.3499C82.2461 51.3506 82.2127 51.3398 82.1854 51.3193C81.604 50.8633 81.0471 50.386 80.53 49.9056C80.5156 49.8913 80.5042 49.8744 80.4965 49.8558C80.4887 49.8371 80.4847 49.8171 80.4847 49.7969C80.4847 49.7767 80.4887 49.7567 80.4965 49.7381C80.5042 49.7194 80.5156 49.7025 80.53 49.6883C80.5591 49.6601 80.598 49.6443 80.6386 49.6443C80.6791 49.6443 80.7181 49.6601 80.7472 49.6883C81.2582 50.1657 81.809 50.6369 82.3843 51.0867C82.4159 51.112 82.4361 51.1487 82.4407 51.1888C82.4453 51.2289 82.4338 51.2692 82.4088 51.3009C82.3924 51.3169 82.3726 51.3287 82.3508 51.3357C82.329 51.3426 82.3059 51.3443 82.2833 51.3407L82.2803 51.3499ZM79.1224 48.397C79.1004 48.3968 79.0788 48.3921 79.0588 48.3831C79.0388 48.3742 79.0208 48.3612 79.0061 48.345C78.5253 47.7983 78.0767 47.2241 77.6627 46.6252C77.6398 46.5918 77.6308 46.5507 77.6377 46.5107C77.6445 46.4707 77.6667 46.435 77.6995 46.411C77.7335 46.3892 77.7746 46.3811 77.8144 46.3885C77.8542 46.3959 77.8897 46.4182 77.9137 46.4508C78.3267 47.0378 78.7743 47.5998 79.2539 48.1338C79.282 48.1624 79.2977 48.2009 79.2977 48.2409C79.2977 48.281 79.282 48.3194 79.2539 48.348C79.237 48.364 79.2166 48.3759 79.1943 48.3828C79.172 48.3897 79.1485 48.3914 79.1254 48.3878L79.1224 48.397ZM76.6744 44.8382C76.6461 44.838 76.6185 44.8299 76.5947 44.8148C76.5709 44.7996 76.5518 44.778 76.5397 44.7525C76.2042 44.1056 75.9149 43.4359 75.6737 42.7482C75.6609 42.7097 75.6637 42.6676 75.6814 42.631C75.6991 42.5945 75.7304 42.5663 75.7686 42.5524C75.8068 42.5397 75.8484 42.5425 75.8844 42.5603C75.9205 42.578 75.9482 42.6093 75.9614 42.6472C76.198 43.3224 76.4822 43.9799 76.8121 44.6148C76.8302 44.651 76.8333 44.6928 76.8207 44.7312C76.8081 44.7696 76.7808 44.8015 76.7447 44.8198C76.7225 44.8289 76.6982 44.832 76.6744 44.829V44.8382ZM75.2759 40.75C75.2396 40.7504 75.2044 40.7376 75.1768 40.714C75.1493 40.6903 75.1312 40.6575 75.126 40.6215C75.0954 40.4593 75.0709 40.2972 75.0464 40.1319C74.9717 39.5925 74.9338 39.0486 74.9332 38.504V38.4397C74.9332 38.3992 74.9493 38.3603 74.978 38.3316C75.0067 38.3029 75.0456 38.2867 75.0862 38.2867C75.1268 38.2867 75.1657 38.3029 75.1944 38.3316C75.2231 38.3603 75.2392 38.3992 75.2392 38.4397V38.5009C75.2388 39.0312 75.2756 39.5609 75.3494 40.086C75.3739 40.2482 75.3983 40.4073 75.4259 40.5664C75.433 40.6062 75.4242 40.6472 75.4013 40.6804C75.3783 40.7137 75.3432 40.7365 75.3035 40.7439L75.2759 40.75ZM75.2912 36.4416H75.2637C75.224 36.4341 75.1889 36.4113 75.1659 36.378C75.143 36.3448 75.1342 36.3038 75.1413 36.2641C75.2743 35.5453 75.4678 34.839 75.7196 34.1527C75.7347 34.1148 75.7638 34.0842 75.8008 34.0671C75.8378 34.05 75.8799 34.0478 75.9185 34.0609C75.9561 34.0753 75.9865 34.1039 76.0031 34.1406C76.0197 34.1772 76.0212 34.219 76.0073 34.2567C75.7599 34.9267 75.5705 35.6168 75.4412 36.3192C75.4344 36.3568 75.4136 36.3904 75.3829 36.4132C75.3521 36.4359 75.3139 36.4461 75.2759 36.4416H75.2912ZM76.7845 32.3993C76.7577 32.3979 76.7316 32.3906 76.708 32.3779C76.6731 32.3569 76.6477 32.323 76.6375 32.2835C76.6272 32.2441 76.6327 32.2022 76.6529 32.1667C77.0209 31.5346 77.446 30.9374 77.9228 30.3828C77.9506 30.3578 77.9865 30.3438 78.0238 30.3434C78.0611 30.343 78.0973 30.3563 78.1255 30.3808C78.1537 30.4052 78.172 30.4391 78.177 30.4761C78.1819 30.5131 78.1732 30.5507 78.1523 30.5817C77.6939 31.1249 77.2843 31.7075 76.9283 32.3228C76.9134 32.3493 76.8908 32.3708 76.8635 32.3844C76.8363 32.3981 76.8056 32.4032 76.7753 32.3993H76.7845ZM79.6028 29.1404C79.5712 29.1402 79.5404 29.1303 79.5147 29.1119C79.489 29.0935 79.4696 29.0676 79.4592 29.0377C79.4488 29.0079 79.4479 28.9755 79.4566 28.9452C79.4653 28.9148 79.4833 28.8878 79.5079 28.8681C80.0862 28.4191 80.7061 28.0267 81.3592 27.6961C81.3957 27.6778 81.438 27.6748 81.4768 27.6877C81.5155 27.7006 81.5475 27.7284 81.5658 27.7649C81.584 27.8015 81.587 27.8437 81.5741 27.8825C81.5612 27.9212 81.5334 27.9532 81.4969 27.9715C80.8617 28.2934 80.2582 28.6745 79.6946 29.1098C79.6657 29.1319 79.6299 29.1428 79.5936 29.1404H79.6028ZM98.3973 27.234C97.6686 27.218 96.9418 27.1536 96.2216 27.0412C96.1811 27.0356 96.1444 27.014 96.1197 26.9813C96.0951 26.9486 96.0844 26.9074 96.0901 26.8668C96.0957 26.8262 96.1173 26.7896 96.15 26.7649C96.1827 26.7402 96.2239 26.7296 96.2645 26.7352C96.9734 26.8467 97.689 26.9101 98.4065 26.925C98.4471 26.925 98.486 26.9411 98.5147 26.9698C98.5434 26.9985 98.5595 27.0374 98.5595 27.078C98.5595 27.1185 98.5434 27.1575 98.5147 27.1862C98.486 27.2148 98.4471 27.231 98.4065 27.231L98.3973 27.234ZM83.4217 27.1545C83.4016 27.1577 83.381 27.1569 83.3613 27.1522C83.3415 27.1475 83.3228 27.1389 83.3063 27.127C83.2898 27.115 83.2759 27.1 83.2652 27.0826C83.2545 27.0653 83.2474 27.046 83.2442 27.0259C83.241 27.0059 83.2417 26.9853 83.2465 26.9655C83.2512 26.9457 83.2598 26.9271 83.2717 26.9106C83.2836 26.8941 83.2987 26.8801 83.316 26.8695C83.3334 26.8588 83.3526 26.8517 83.3727 26.8485C84.0651 26.6237 84.7701 26.4398 85.4841 26.2977C85.504 26.2937 85.5245 26.2937 85.5444 26.2977C85.5643 26.3017 85.5832 26.3097 85.6 26.321C85.6168 26.3324 85.6312 26.3471 85.6423 26.3641C85.6534 26.3811 85.661 26.4001 85.6646 26.4201C85.6691 26.4396 85.6695 26.4598 85.6658 26.4795C85.6621 26.4992 85.6545 26.518 85.6433 26.5346C85.6321 26.5512 85.6177 26.5654 85.6008 26.5762C85.584 26.587 85.5651 26.5943 85.5453 26.5975C84.8429 26.7381 84.1492 26.9189 83.4676 27.1392L83.4217 27.1545ZM94.1072 26.674H94.0796C93.4217 26.5516 92.6782 26.4139 91.9376 26.3099C91.8981 26.3038 91.8624 26.2825 91.8384 26.2505C91.8144 26.2184 91.8039 26.1782 91.8091 26.1385C91.8114 26.1185 91.8176 26.0991 91.8276 26.0815C91.8375 26.064 91.8508 26.0486 91.8668 26.0363C91.8828 26.024 91.9011 26.0151 91.9207 26.01C91.9402 26.005 91.9605 26.004 91.9805 26.007C92.7149 26.111 93.4615 26.2518 94.1225 26.3742C94.1622 26.3816 94.1973 26.4044 94.2203 26.4377C94.2432 26.4709 94.252 26.5119 94.2449 26.5516C94.2397 26.5857 94.2233 26.6171 94.1984 26.6409C94.1735 26.6647 94.1414 26.6796 94.1072 26.6832V26.674ZM87.6567 26.2793C87.6161 26.2817 87.5762 26.268 87.5458 26.241C87.5154 26.214 87.497 26.1761 87.4945 26.1355C87.4921 26.0949 87.5059 26.055 87.5328 26.0246C87.5598 25.9942 87.5978 25.9757 87.6383 25.9733C88.027 25.9305 88.4431 25.8907 88.8623 25.857C89.1316 25.8356 89.4162 25.8234 89.7069 25.8234H89.8079C89.828 25.8238 89.8478 25.8281 89.8662 25.8362C89.8846 25.8442 89.9013 25.8558 89.9152 25.8703C89.9291 25.8848 89.94 25.9019 89.9474 25.9206C89.9547 25.9394 89.9582 25.9593 89.9578 25.9794C89.9556 26.019 89.9386 26.0563 89.9103 26.084C89.882 26.1117 89.8444 26.1279 89.8048 26.1294H89.7069C89.4254 26.1294 89.15 26.1294 88.8838 26.16C88.4615 26.1936 88.0514 26.2334 87.6598 26.2793H87.6567Z" fill="white"/>
<path d="M86.8488 79.8966C86.4847 79.8813 86.1236 79.8538 85.7748 79.8201C85.7548 79.8186 85.7353 79.8131 85.7175 79.8039C85.6996 79.7947 85.6838 79.782 85.671 79.7666C85.6581 79.7512 85.6485 79.7334 85.6427 79.7142C85.6369 79.695 85.635 79.6748 85.6371 79.6549C85.6382 79.6347 85.6434 79.615 85.6525 79.597C85.6615 79.5789 85.6742 79.563 85.6897 79.55C85.7052 79.5371 85.7232 79.5275 85.7426 79.5219C85.7619 79.5162 85.7823 79.5146 85.8023 79.5172C86.1481 79.5508 86.503 79.5753 86.8641 79.5906C86.9047 79.5906 86.9436 79.6067 86.9723 79.6354C87.001 79.6641 87.0171 79.703 87.0171 79.7436C87.0171 79.7842 87.001 79.8231 86.9723 79.8518C86.9436 79.8805 86.9047 79.8966 86.8641 79.8966H86.8488Z" fill="white"/>
</g>
<path d="M115.314 15.6767L104.509 15.2333C103.965 15.211 103.506 15.6336 103.484 16.1774L103.283 21.0692C103.261 21.613 103.684 22.0718 104.227 22.0941L115.032 22.5376C115.576 22.5599 116.035 22.1372 116.057 21.5935L116.258 16.7016C116.28 16.1579 115.857 15.699 115.314 15.6767Z" fill="#25AE4B"/>
<path opacity="0.8" d="M115.314 15.6767L104.509 15.2333C103.965 15.211 103.506 15.6336 103.484 16.1774L103.283 21.0692C103.261 21.613 103.684 22.0718 104.227 22.0941L115.032 22.5376C115.576 22.5599 116.035 22.1372 116.057 21.5935L116.258 16.7016C116.28 16.1579 115.857 15.699 115.314 15.6767Z" fill="white"/>
<path opacity="0.4" d="M109.722 20.196C109.691 20.1958 109.66 20.1862 109.634 20.1684L104.04 16.3189C104.023 16.3076 104.009 16.293 103.998 16.276C103.987 16.2591 103.979 16.2401 103.975 16.2202C103.972 16.2002 103.972 16.1798 103.976 16.16C103.98 16.1401 103.989 16.1214 104 16.1047C104.024 16.0723 104.059 16.0501 104.098 16.0427C104.137 16.0353 104.178 16.0433 104.211 16.065L109.719 19.8655L115.533 16.5301C115.569 16.5103 115.61 16.5053 115.649 16.5162C115.688 16.5271 115.722 16.553 115.741 16.5882C115.762 16.6232 115.767 16.6646 115.757 16.7036C115.746 16.7426 115.721 16.7759 115.686 16.7963L109.805 20.1623C109.782 20.182 109.753 20.1938 109.722 20.196Z" fill="#25AE4B"/>
<path opacity="0.4" d="M115.402 21.6924C115.371 21.6926 115.341 21.6829 115.316 21.6648L112.115 19.4402C112.099 19.4288 112.084 19.4143 112.073 19.3973C112.062 19.3803 112.054 19.3614 112.051 19.3414C112.047 19.3215 112.047 19.301 112.052 19.2812C112.056 19.2614 112.064 19.2426 112.076 19.226C112.1 19.1932 112.135 19.1711 112.175 19.1642C112.215 19.1574 112.256 19.1664 112.29 19.1893L115.491 21.42C115.507 21.4313 115.521 21.4458 115.532 21.4626C115.543 21.4794 115.55 21.4982 115.553 21.5179C115.557 21.5375 115.556 21.5577 115.552 21.5771C115.547 21.5966 115.539 21.615 115.527 21.6312C115.513 21.6506 115.494 21.6663 115.472 21.6769C115.45 21.6875 115.426 21.6928 115.402 21.6924Z" fill="#25AE4B"/>
<path opacity="0.4" d="M103.939 21.2211C103.904 21.2228 103.87 21.2126 103.842 21.1922C103.814 21.1719 103.794 21.1426 103.784 21.1091C103.775 21.0757 103.777 21.0401 103.791 21.0082C103.805 20.9762 103.829 20.9499 103.859 20.9335L107.225 18.9812C107.26 18.9656 107.299 18.9634 107.335 18.9749C107.371 18.9865 107.402 19.011 107.421 19.0438C107.44 19.0765 107.446 19.1151 107.438 19.1522C107.43 19.1893 107.409 19.2221 107.378 19.2444L104.012 21.1997C103.99 21.2134 103.965 21.2208 103.939 21.2211Z" fill="#25AE4B"/>
<path d="M126.139 18.2988L104.606 23.2101L101.846 24.9145L126.139 18.2988Z" fill="#25AE4B"/>
<path opacity="0.2" d="M104.606 23.2101L101.846 24.9145L126.139 18.2988" fill="black"/>
<path d="M126.139 18.2988L104.606 23.2101L106.632 24.7003L126.139 18.2988Z" fill="#25AE4B"/>
<path d="M126.139 18.2988L107.678 22.0749L106.632 24.7003L126.139 18.2988Z" fill="#25AE4B"/>
<path opacity="0.2" d="M126.139 18.2988L107.678 22.0749L106.632 24.7003L126.139 18.2988Z" fill="black"/>
<path d="M126.139 18.2988L107.678 22.0749L113.492 24.1832L126.139 18.2988Z" fill="#25AE4B"/>
</svg>
